<?xml version="1.0" encoding="utf-8"?>
<!-- Generator: Adobe Illustrator 25.2.0, SVG Export Plug-In . SVG Version: 6.00 Build 0)  -->
<svg version="1.1" id="Layer_1" xmlns="http://www.w3.org/2000/svg" xmlns:xlink="http://www.w3.org/1999/xlink" x="0px" y="0px"
	 viewBox="0 0 128 128" style="enable-background:new 0 0 128 128;" xml:space="preserve">
<g>
	<path d="M88.5,69.8L50.8,42.2c-4-2.9-4.8-8.5-1.9-12.5l9.8-13.3c2.9-4,8.5-4.8,12.5-1.9l37.7,27.7c4,2.9,4.8,8.5,1.9,12.5
		l-9.8,13.3C98,71.9,92.4,72.8,88.5,69.8z"/>
	<path d="M93.7,72.1c-1.9,0-3.9-0.6-5.6-1.8L50.5,42.6c-2-1.5-3.4-3.7-3.7-6.2s0.2-5,1.7-7l9.8-13.3c3.1-4.2,9-5.1,13.2-2l37.7,27.7
		c4.2,3.1,5.1,9,2,13.2l-9.8,13.3C99.5,70.7,96.6,72.1,93.7,72.1z M88.8,69.4c3.7,2.7,9,1.9,11.8-1.8l9.8-13.3
		c2.7-3.7,1.9-9-1.8-11.8L70.8,14.9c-3.7-2.7-9-1.9-11.8,1.8L49.3,30c-1.3,1.8-1.9,4-1.5,6.3s1.5,4.2,3.3,5.5L88.8,69.4z"/>
</g>
<g>
	<rect x="13" y="80.1" transform="matrix(-0.5926 0.8055 -0.8055 -0.5926 144.4512 95.7582)" width="70" height="8.7"/>
	<path d="M30.9,115.8l-7.8-5.7l42-57.2l7.8,5.7l-0.3,0.4L30.9,115.8z M24.5,109.9l6.2,4.5l40.9-55.5l-6.2-4.5L24.5,109.9z"/>
</g>
</svg>
