<?xml version="1.0" encoding="UTF-8" standalone="no"?>
<!DOCTYPE svg PUBLIC "-//W3C//DTD SVG 1.1//EN" "http://www.w3.org/Graphics/SVG/1.1/DTD/svg11.dtd">
<svg version="1.1" xmlns:xl="http://www.w3.org/1999/xlink" xmlns="http://www.w3.org/2000/svg" xmlns:dc="http://purl.org/dc/elements/1.1/" viewBox="0 0 48 48" width="48" height="48">
  <defs/>
  <g id="Canvas_1" fill="none" stroke-opacity="1" fill-opacity="1" stroke-dasharray="none" stroke="none">
    <title>Canvas 1</title>
    <rect fill="white" x="0" y="0" width="48" height="48"/>
    <g id="Canvas_1_Layer_1">
      <title>Layer 1</title>
      <g id="Group_14">
        <title>0.12</title>
        <g id="Graphic_10">
          <path d="M 15.122954 24 C 15.122954 27.34183 14.961555 30.245996 14.638752 32.712585 C 14.315948 35.179174 13.86961 37.21695 13.299723 38.82598 C 12.729835 40.43501 12.056342 41.632924 11.279223 42.419757 C 10.502104 43.20659 9.663227 43.6 8.762566 43.6 C 7.861905 43.6 7.0270125 43.20659 6.257864 42.419757 C 5.4887154 41.632924 4.8212 40.43501 4.255298 38.82598 C 3.689396 37.21695 3.2470426 35.179174 2.9282245 32.712585 C 2.6094065 30.245996 2.45 27.34183 2.45 24 C 2.45 20.640488 2.6094065 17.731902 2.9282245 15.274154 C 3.2470426 12.816406 3.689396 10.783048 4.255298 9.174019 C 4.8212 7.5649895 5.4887154 6.367076 6.257864 5.580243 C 7.0270125 4.7934103 7.861905 4.3999997 8.762566 4.3999997 C 9.663227 4.3999997 10.502104 4.7934103 11.279223 5.580243 C 12.056342 6.367076 12.729835 7.5649895 13.299723 9.174019 C 13.86961 10.783048 14.315948 12.816406 14.638752 15.274154 C 14.961555 17.731902 15.122954 20.640488 15.122954 24 Z M 12.074272 24 C 12.074272 21.223982 11.982613 18.925404 11.799293 17.104195 C 11.615972 15.282986 11.370884 13.833113 11.064022 12.754533 C 10.75716 11.675953 10.404473 10.920074 10.00595 10.486874 C 9.607427 10.053674 9.19297 9.837077 8.762566 9.837077 C 8.340132 9.837077 7.931652 10.053674 7.537115 10.486874 C 7.142578 10.920074 6.793876 11.675953 6.4909985 12.754533 C 6.188121 13.833113 5.947019 15.282986 5.7676837 17.104195 C 5.5883485 18.925404 5.498682 21.223982 5.498682 24 C 5.498682 26.776018 5.5883485 29.074596 5.7676837 30.895805 C 5.947019 32.717014 6.188121 34.166887 6.4909985 35.245467 C 6.793876 36.324047 7.142578 37.079926 7.537115 37.513126 C 7.931652 37.946326 8.340132 38.162923 8.762566 38.162923 C 9.19297 38.162923 9.607427 37.946326 10.00595 37.513126 C 10.404473 37.079926 10.75716 36.324047 11.064022 35.245467 C 11.370884 34.166887 11.615972 32.717014 11.799293 30.895805 C 11.982613 29.074596 12.074272 26.776018 12.074272 24 Z" fill="black"/>
        </g>
        <g id="Graphic_11">
          <path d="M 15.553356 39.568606 C 15.553356 39.020476 15.599186 38.498875 15.690846 38.00379 C 15.782506 37.508703 15.908039 37.08435 16.067448 36.730717 C 16.226857 36.377085 16.418145 36.094183 16.641318 35.882003 C 16.86449 35.669823 17.1036 35.563735 17.358655 35.563735 C 17.61371 35.563735 17.850826 35.669823 18.070014 35.882003 C 18.289201 36.094183 18.48049 36.377085 18.643883 36.730717 C 18.807278 37.08435 18.936796 37.508703 19.03244 38.00379 C 19.128086 38.498875 19.175908 39.020476 19.175908 39.568606 C 19.175908 40.13442 19.128086 40.66044 19.03244 41.146685 C 18.936796 41.63293 18.807278 42.052863 18.643883 42.406496 C 18.48049 42.76013 18.289201 43.03861 18.070014 43.24195 C 17.850826 43.44529 17.61371 43.546956 17.358655 43.546956 C 17.1036 43.546956 16.86449 43.44529 16.641318 43.24195 C 16.418145 43.03861 16.226857 42.76013 16.067448 42.406496 C 15.908039 42.052863 15.782506 41.63293 15.690846 41.146685 C 15.599186 40.66044 15.553356 40.13442 15.553356 39.568606 Z" fill="black"/>
        </g>
        <g id="Graphic_12">
          <path d="M 31.382594 38.269012 L 31.382594 43.175643 L 21.8181 43.175643 L 21.8181 38.269012 L 25.321096 38.269012 L 25.321096 15.91069 C 25.321096 15.026608 25.33305 14.116017 25.356963 13.17889 L 22.870194 17.793775 C 22.726726 18.041318 22.585253 18.19603 22.44577 18.257916 C 22.306287 18.319802 22.174776 18.324222 22.051234 18.271177 C 21.927692 18.218132 21.8181 18.125305 21.722455 17.992693 C 21.62681 17.86008 21.555077 17.71421 21.507254 17.555074 L 20.574716 14.717185 L 25.847143 4.7713123 L 28.274133 4.7713123 L 28.274133 38.269012 Z" fill="black"/>
        </g>
        <g id="Graphic_13">
          <path d="M 43.409945 37.075508 C 43.728763 37.075508 43.98182 37.274423 44.169126 37.67226 C 44.35643 38.070097 44.450083 38.59612 44.450083 39.25034 L 44.450083 43.175643 L 32.59011 43.175643 L 32.59011 41.00081 C 32.59011 40.55877 32.631955 40.094635 32.715645 39.60839 C 32.799335 39.122145 32.932838 38.68453 33.11616 38.295535 L 38.364674 26.62571 C 38.80305 25.63554 39.19559 24.689585 39.542302 23.78782 C 39.889017 22.886058 40.17794 21.993148 40.409085 21.109066 C 40.64023 20.224984 40.81757 19.327654 40.94111 18.41705 C 41.06465 17.506446 41.12642 16.54723 41.12642 15.539377 C 41.12642 14.619932 41.066644 13.81101 40.947087 13.112584 C 40.82753 12.41416 40.65816 11.826254 40.438974 11.34885 C 40.219786 10.871445 39.956765 10.513397 39.649903 10.274695 C 39.34304 10.035993 38.998324 9.916644 38.61574 9.916644 C 38.26504 9.916644 37.94025 10.027152 37.64136 10.248173 C 37.342467 10.469194 37.077454 10.778618 36.84631 11.176454 C 36.615168 11.574291 36.419895 12.038427 36.260486 12.568877 C 36.101076 13.099326 35.98152 13.682811 35.901817 14.31935 C 35.76632 15.132706 35.59097 15.671988 35.37577 15.937212 C 35.160568 16.202437 34.849725 16.264322 34.44323 16.122869 L 32.889 15.512855 C 33.00856 13.673964 33.239698 12.060539 33.582427 10.67253 C 33.925157 9.284521 34.35356 8.126391 34.867656 7.198105 C 35.38175 6.269819 35.971555 5.571405 36.637087 5.1028414 C 37.30262 4.634278 38.017957 4.3999997 38.78312 4.3999997 C 39.580166 4.3999997 40.30945 4.6608 40.971 5.1824084 C 41.632546 5.704017 42.19844 6.442214 42.668696 7.397023 C 43.138953 8.351831 43.50559 9.501121 43.768613 10.844925 C 44.03164 12.18873 44.16315 13.682806 44.16315 15.327199 C 44.16315 16.74173 44.069497 18.050152 43.88219 19.252503 C 43.694886 20.454855 43.44382 21.604144 43.12899 22.700406 C 42.814155 23.796668 42.445527 24.85755 42.023093 25.883085 C 41.60066 26.90862 41.158306 27.95182 40.69602 29.01272 L 36.79849 37.844655 C 37.1731 37.59711 37.545713 37.407037 37.91634 37.274425 C 38.286964 37.141813 38.63965 37.075508 38.97441 37.075508 Z" fill="black"/>
        </g>
      </g>
    </g>
  </g>
</svg>
