<?xml version="1.0" encoding="iso-8859-1"?>
<!-- Generator: Adobe Illustrator 18.0.0, SVG Export Plug-In . SVG Version: 6.00 Build 0)  -->
<!DOCTYPE svg PUBLIC "-//W3C//DTD SVG 1.1//EN" "http://www.w3.org/Graphics/SVG/1.1/DTD/svg11.dtd">
<svg version="1.1" id="Capa_1" xmlns="http://www.w3.org/2000/svg" xmlns:xlink="http://www.w3.org/1999/xlink" x="0px" y="0px"
	 viewBox="0 0 236.682 236.682" style="enable-background:new 0 0 236.682 236.682;" xml:space="preserve">
<g>
	<path d="M118.342,55.421C53.088,55.421,0,108.508,0,173.761c0,4.142,3.357,7.5,7.5,7.5s7.5-3.358,7.5-7.5
		c0-56.982,46.359-103.34,103.342-103.34c56.981,0,103.34,46.358,103.34,103.34c0,4.142,3.357,7.5,7.5,7.5
		c4.143,0,7.5-3.358,7.5-7.5C236.682,108.508,183.595,55.421,118.342,55.421z"/>
	<path d="M118.342,138.552c-19.415,0-35.211,15.795-35.211,35.209c0,4.142,3.357,7.5,7.5,7.5c4.143,0,7.5-3.358,7.5-7.5
		c0-11.143,9.066-20.209,20.211-20.209c11.145,0,20.211,9.066,20.211,20.209c0,4.142,3.357,7.5,7.5,7.5c4.143,0,7.5-3.358,7.5-7.5
		C153.553,154.347,137.757,138.552,118.342,138.552z"/>
	<path d="M118.342,96.985c-42.335,0-76.776,34.441-76.776,76.775c0,4.142,3.357,7.5,7.5,7.5s7.5-3.358,7.5-7.5
		c0-34.063,27.713-61.775,61.776-61.775c34.063,0,61.774,27.712,61.774,61.775c0,4.142,3.357,7.5,7.5,7.5c4.143,0,7.5-3.358,7.5-7.5
		C195.116,131.427,160.676,96.985,118.342,96.985z"/>
</g>
<g>
</g>
<g>
</g>
<g>
</g>
<g>
</g>
<g>
</g>
<g>
</g>
<g>
</g>
<g>
</g>
<g>
</g>
<g>
</g>
<g>
</g>
<g>
</g>
<g>
</g>
<g>
</g>
<g>
</g>
</svg>
