<?xml version="1.0" encoding="utf-8"?>
<!-- Generator: Adobe Illustrator 25.2.0, SVG Export Plug-In . SVG Version: 6.00 Build 0)  -->
<svg version="1.1" id="Layer_1" xmlns="http://www.w3.org/2000/svg" xmlns:xlink="http://www.w3.org/1999/xlink" x="0px" y="0px"
	 viewBox="0 0 128 128" style="enable-background:new 0 0 128 128;" xml:space="preserve">
<style type="text/css">
	.st0{fill:#FEE830;}
	.st1{enable-background:new    ;}
</style>
<path class="st0" d="M59.1,38.8L33.2,83.6c-2.2,3.8,0.5,8.5,4.9,8.5h51.8c4.4,0,7.1-4.7,4.9-8.5L68.9,38.8
	C66.7,35,61.3,35,59.1,38.8z"/>
<g class="st1">
	<path d="M60.8,81.4c0-0.4,0.1-0.8,0.2-1.2c0.2-0.4,0.4-0.7,0.7-1c0.3-0.3,0.6-0.5,1-0.7c0.4-0.2,0.8-0.3,1.3-0.3
		c0.4,0,0.8,0.1,1.2,0.3c0.4,0.2,0.7,0.4,1,0.7c0.3,0.3,0.5,0.6,0.7,1c0.2,0.4,0.3,0.8,0.3,1.2c0,0.4-0.1,0.9-0.3,1.2
		s-0.4,0.7-0.7,1c-0.3,0.3-0.6,0.5-1,0.7c-0.4,0.2-0.8,0.2-1.2,0.2c-0.4,0-0.9-0.1-1.3-0.2c-0.4-0.2-0.7-0.4-1-0.7
		c-0.3-0.3-0.5-0.6-0.7-1C60.9,82.3,60.8,81.9,60.8,81.4z M66.5,53.9v12c0,1.3-0.1,2.5-0.2,3.7s-0.3,2.5-0.5,3.9h-3.5
		c-0.2-1.4-0.4-2.7-0.5-3.9s-0.2-2.5-0.2-3.7v-12H66.5z"/>
</g>
</svg>
