{
  "accessors": [
    {
      "bufferView": 0,
      "componentType": 5126,
      "count": 76801,
      "max": [
        0.0854266807436943,
        0.202647596597672,
        0.0859306827187538
      ],
      "min": [
        -0.0854227393865585,
        -0.202645003795624,
        -0.0859218463301659
      ],
      "type": "VEC3"
    },
    {
      "bufferView": 1,
      "componentType": 5126,
      "count": 76801,
      "type": "VEC3"
    },
    {
      "bufferView": 2,
      "componentType": 5126,
      "count": 76801,
      "type": "VEC2"
    },
    {
      "bufferView": 3,
      "componentType": 5125,
      "count": 449997,
      "type": "SCALAR"
    }
  ],
  "asset": {
    "generator": "MeshSmith mesh conversion tool",
    "version": "2.0"
  },
  "bufferViews": [
    {
      "buffer": 0,
      "byteLength": 921612,
      "target": 34962
    },
    {
      "buffer": 0,
      "byteLength": 921612,
      "byteOffset": 921612,
      "target": 34962
    },
    {
      "buffer": 0,
      "byteLength": 614408,
      "byteOffset": 1843224,
      "target": 34962
    },
    {
      "buffer": 0,
      "byteLength": 1799988,
      "byteOffset": 2457632,
      "target": 34963
    }
  ],
  "buffers": [
    {
      "byteLength": 4257620,
      "uri": "f1980_191-150k-4096.bin"
    }
  ],
  "images": [
    {
      "uri": "f1980_191-150k-4096-diffuse.jpg"
    },
    {
      "uri": "f1980_191-150k-4096-occlusion.jpg"
    },
    {
      "uri": "f1980_191-150k-4096-normals.jpg"
    }
  ],
  "materials": [
    {
      "name": "default",
      "normalTexture": {
        "index": 2
      },
      "occlusionTexture": {
        "index": 1
      },
      "pbrMetallicRoughness": {
        "baseColorTexture": {
          "index": 0
        },
        "metallicFactor": 0.100000001490116,
        "roughnessFactor": 0.800000011920929
      }
    }
  ],
  "meshes": [
    {
      "primitives": [
        {
          "attributes": {
            "NORMAL": 1,
            "POSITION": 0,
            "TEXCOORD_0": 2
          },
          "indices": 3,
          "material": 0,
          "mode": 4
        }
      ]
    }
  ],
  "nodes": [
    {
      "mesh": 0
    }
  ],
  "scene": 0,
  "scenes": [
    {
      "nodes": [
        0
      ]
    }
  ],
  "textures": [
    {
      "source": 0
    },
    {
      "source": 1
    },
    {
      "source": 2
    }
  ]
}